<svg width="512" height="512" viewBox="0 0 512 512" fill="none" xmlns="http://www.w3.org/2000/svg">
<path d="M190.001 298C179.334 328.667 181.334 346.667 196.001 352C212.001 357.333 221.334 350.667 224.001 332L222.001 296L190.001 298Z" fill="#F4ECD6" stroke="#33302A" stroke-width="13" stroke-linecap="round" stroke-linejoin="round"/>
<path d="M394 292C403.333 322.667 401.333 340.667 388 346C372 351.333 362.667 344.667 360 326L362 290L394 292Z" fill="#F4ECD6" stroke="#33302A" stroke-width="13" stroke-linecap="round" stroke-linejoin="round"/>
<path d="M395 259.5C419 260.833 441 276.5 454 276.5C452.667 288.5 424.667 292 406 288L395 259.5Z" fill="#F4ECD6" stroke="#33302A" stroke-width="13" stroke-linecap="round" stroke-linejoin="round"/>
<path d="M192 241C165 232 120 222 95.0004 241C66.0004 259 70.0004 291 100 297C128 303 165 294 188 284C200 277 202 254 192 241Z" fill="#F4ECD6" stroke="#33302A" stroke-width="13" stroke-linecap="round" stroke-linejoin="round"/>
<path d="M150 292C134 196 198 150 286 150C374 150 426 200 410 292C360 316 206 316 150 292Z" fill="#C9E0A6" stroke="#33302A" stroke-width="13" stroke-linecap="round" stroke-linejoin="round"/>
<path d="M250 227C265.464 227 278 217.15 278 205C278 192.85 265.464 183 250 183C234.536 183 222 192.85 222 205C222 217.15 234.536 227 250 227Z" fill="#ABCB80"/>
<path d="M332 244C344.703 244 355 231.464 355 216C355 200.536 344.703 188 332 188C319.297 188 309 200.536 309 216C309 231.464 319.297 244 332 244Z" fill="#ABCB80"/>
<path d="M208 271C217.389 271 225 264.284 225 256C225 247.716 217.389 241 208 241C198.611 241 191 247.716 191 256C191 264.284 198.611 271 208 271Z" fill="#ABCB80"/>
<path d="M312 292C326.359 292 338 283.941 338 274C338 264.059 326.359 256 312 256C297.641 256 286 264.059 286 274C286 283.941 297.641 292 312 292Z" fill="#ABCB80"/>
<path d="M374 270C381.732 270 388 261.046 388 250C388 238.954 381.732 230 374 230C366.268 230 360 238.954 360 250C360 261.046 366.268 270 374 270Z" fill="#ABCB80"/>
<path d="M103.5 260C107.09 260 110 257.09 110 253.5C110 249.91 107.09 247 103.5 247C99.9101 247 97 249.91 97 253.5C97 257.09 99.9101 260 103.5 260Z" fill="#33302A"/>
<path d="M132 259C135.866 259 139 255.866 139 252C139 248.134 135.866 245 132 245C128.134 245 125 248.134 125 252C125 255.866 128.134 259 132 259Z" fill="#33302A"/>
<path d="M108 272C116.667 279.333 125.333 279.333 134 272" stroke="#33302A" stroke-width="7" stroke-linecap="round"/>
</svg>
